<?xml version="1.0" encoding="UTF-8" standalone="no"?>
<!DOCTYPE svg PUBLIC "-//W3C//DTD SVG 1.1//EN"
 "http://www.w3.org/Graphics/SVG/1.1/DTD/svg11.dtd">
<!-- Generated by graphviz version 2.26.3 (20100126.1600)
 -->
<!-- Title: G Pages: 1 -->
<svg width="992pt" height="1172pt"
 viewBox="0.00 0.00 992.00 1172.00" xmlns="http://www.w3.org/2000/svg" xmlns:xlink="http://www.w3.org/1999/xlink">
<g id="graph1" class="graph" transform="scale(1 1) rotate(0) translate(4 1168)">
<title>G</title>
<polygon fill="white" stroke="white" points="-4,5 -4,-1168 989,-1168 989,5 -4,5"/>
<g id="graph2" class="cluster"><title>cluster_Global</title>
<polyline fill="none" stroke="gray" points="712,-8 964,-8 "/>
<path fill="none" stroke="gray" d="M964,-8C970,-8 976,-14 976,-20"/>
<polyline fill="none" stroke="gray" points="976,-20 976,-1144 "/>
<path fill="none" stroke="gray" d="M976,-1144C976,-1150 970,-1156 964,-1156"/>
<polyline fill="none" stroke="gray" points="964,-1156 712,-1156 "/>
<path fill="none" stroke="gray" d="M712,-1156C706,-1156 700,-1150 700,-1144"/>
<polyline fill="none" stroke="gray" points="700,-1144 700,-20 "/>
<path fill="none" stroke="gray" d="M700,-20C700,-14 706,-8 712,-8"/>
<text text-anchor="middle" x="838" y="-1142.1" font-family="Times Roman,serif" font-size="11.00" fill="gray">\</text>
</g>
<g id="graph3" class="cluster"><title>cluster_\RustigWerken</title>
<polyline fill="none" stroke="gray" points="720,-16 956,-16 "/>
<path fill="none" stroke="gray" d="M956,-16C962,-16 968,-22 968,-28"/>
<polyline fill="none" stroke="gray" points="968,-28 968,-1114 "/>
<path fill="none" stroke="gray" d="M968,-1114C968,-1120 962,-1126 956,-1126"/>
<polyline fill="none" stroke="gray" points="956,-1126 720,-1126 "/>
<path fill="none" stroke="gray" d="M720,-1126C714,-1126 708,-1120 708,-1114"/>
<polyline fill="none" stroke="gray" points="708,-1114 708,-28 "/>
<path fill="none" stroke="gray" d="M708,-28C708,-22 714,-16 720,-16"/>
<text text-anchor="middle" x="838" y="-1112.1" font-family="Times Roman,serif" font-size="11.00" fill="gray">RustigWerken</text>
</g>
<g id="graph4" class="cluster"><title>cluster_\RustigWerken\ApiBundle</title>
<polyline fill="none" stroke="gray" points="744,-802 932,-802 "/>
<path fill="none" stroke="gray" d="M932,-802C938,-802 944,-808 944,-814"/>
<polyline fill="none" stroke="gray" points="944,-814 944,-1084 "/>
<path fill="none" stroke="gray" d="M944,-1084C944,-1090 938,-1096 932,-1096"/>
<polyline fill="none" stroke="gray" points="932,-1096 744,-1096 "/>
<path fill="none" stroke="gray" d="M744,-1096C738,-1096 732,-1090 732,-1084"/>
<polyline fill="none" stroke="gray" points="732,-1084 732,-814 "/>
<path fill="none" stroke="gray" d="M732,-814C732,-808 738,-802 744,-802"/>
<text text-anchor="middle" x="838" y="-1082.1" font-family="Times Roman,serif" font-size="11.00" fill="gray">ApiBundle</text>
</g>
<g id="graph5" class="cluster"><title>cluster_\RustigWerken\ApiBundle\DependencyInjection</title>
<polyline fill="none" stroke="gray" points="752,-938 924,-938 "/>
<path fill="none" stroke="gray" d="M924,-938C930,-938 936,-944 936,-950"/>
<polyline fill="none" stroke="gray" points="936,-950 936,-1054 "/>
<path fill="none" stroke="gray" d="M936,-1054C936,-1060 930,-1066 924,-1066"/>
<polyline fill="none" stroke="gray" points="924,-1066 752,-1066 "/>
<path fill="none" stroke="gray" d="M752,-1066C746,-1066 740,-1060 740,-1054"/>
<polyline fill="none" stroke="gray" points="740,-1054 740,-950 "/>
<path fill="none" stroke="gray" d="M740,-950C740,-944 746,-938 752,-938"/>
<text text-anchor="middle" x="838" y="-1052.1" font-family="Times Roman,serif" font-size="11.00" fill="gray">DependencyInjection</text>
</g>
<g id="graph6" class="cluster"><title>cluster_\RustigWerken\ApiBundle\Controller</title>
<polyline fill="none" stroke="gray" points="773,-856 903,-856 "/>
<path fill="none" stroke="gray" d="M903,-856C909,-856 915,-862 915,-868"/>
<polyline fill="none" stroke="gray" points="915,-868 915,-918 "/>
<path fill="none" stroke="gray" d="M915,-918C915,-924 909,-930 903,-930"/>
<polyline fill="none" stroke="gray" points="903,-930 773,-930 "/>
<path fill="none" stroke="gray" d="M773,-930C767,-930 761,-924 761,-918"/>
<polyline fill="none" stroke="gray" points="761,-918 761,-868 "/>
<path fill="none" stroke="gray" d="M761,-868C761,-862 767,-856 773,-856"/>
<text text-anchor="middle" x="838" y="-916.1" font-family="Times Roman,serif" font-size="11.00" fill="gray">Controller</text>
</g>
<g id="graph7" class="cluster"><title>cluster_\RustigWerken\EntitiesBundle</title>
<polyline fill="none" stroke="gray" points="728,-446 948,-446 "/>
<path fill="none" stroke="gray" d="M948,-446C954,-446 960,-452 960,-458"/>
<polyline fill="none" stroke="gray" points="960,-458 960,-782 "/>
<path fill="none" stroke="gray" d="M960,-782C960,-788 954,-794 948,-794"/>
<polyline fill="none" stroke="gray" points="948,-794 728,-794 "/>
<path fill="none" stroke="gray" d="M728,-794C722,-794 716,-788 716,-782"/>
<polyline fill="none" stroke="gray" points="716,-782 716,-458 "/>
<path fill="none" stroke="gray" d="M716,-458C716,-452 722,-446 728,-446"/>
<text text-anchor="middle" x="838" y="-780.1" font-family="Times Roman,serif" font-size="11.00" fill="gray">EntitiesBundle</text>
</g>
<g id="graph8" class="cluster"><title>cluster_\RustigWerken\EntitiesBundle\Entity</title>
<polyline fill="none" stroke="gray" points="773,-454 903,-454 "/>
<path fill="none" stroke="gray" d="M903,-454C909,-454 915,-460 915,-466"/>
<polyline fill="none" stroke="gray" points="915,-466 915,-570 "/>
<path fill="none" stroke="gray" d="M915,-570C915,-576 909,-582 903,-582"/>
<polyline fill="none" stroke="gray" points="903,-582 773,-582 "/>
<path fill="none" stroke="gray" d="M773,-582C767,-582 761,-576 761,-570"/>
<polyline fill="none" stroke="gray" points="761,-570 761,-466 "/>
<path fill="none" stroke="gray" d="M761,-466C761,-460 767,-454 773,-454"/>
<text text-anchor="middle" x="838" y="-568.1" font-family="Times Roman,serif" font-size="11.00" fill="gray">Entity</text>
</g>
<g id="graph9" class="cluster"><title>cluster_\RustigWerken\EntitiesBundle\DependencyInjection</title>
<polyline fill="none" stroke="gray" points="736,-636 940,-636 "/>
<path fill="none" stroke="gray" d="M940,-636C946,-636 952,-642 952,-648"/>
<polyline fill="none" stroke="gray" points="952,-648 952,-752 "/>
<path fill="none" stroke="gray" d="M952,-752C952,-758 946,-764 940,-764"/>
<polyline fill="none" stroke="gray" points="940,-764 736,-764 "/>
<path fill="none" stroke="gray" d="M736,-764C730,-764 724,-758 724,-752"/>
<polyline fill="none" stroke="gray" points="724,-752 724,-648 "/>
<path fill="none" stroke="gray" d="M724,-648C724,-642 730,-636 736,-636"/>
<text text-anchor="middle" x="838" y="-750.1" font-family="Times Roman,serif" font-size="11.00" fill="gray">DependencyInjection</text>
</g>
<g id="graph10" class="cluster"><title>cluster_\RustigWerken\MapsBundle</title>
<polyline fill="none" stroke="gray" points="741,-24 935,-24 "/>
<path fill="none" stroke="gray" d="M935,-24C941,-24 947,-30 947,-36"/>
<polyline fill="none" stroke="gray" points="947,-36 947,-426 "/>
<path fill="none" stroke="gray" d="M947,-426C947,-432 941,-438 935,-438"/>
<polyline fill="none" stroke="gray" points="935,-438 741,-438 "/>
<path fill="none" stroke="gray" d="M741,-438C735,-438 729,-432 729,-426"/>
<polyline fill="none" stroke="gray" points="729,-426 729,-36 "/>
<path fill="none" stroke="gray" d="M729,-36C729,-30 735,-24 741,-24"/>
<text text-anchor="middle" x="838" y="-424.1" font-family="Times Roman,serif" font-size="11.00" fill="gray">MapsBundle</text>
</g>
<g id="graph11" class="cluster"><title>cluster_\RustigWerken\MapsBundle\DependencyInjection</title>
<polyline fill="none" stroke="gray" points="749,-280 927,-280 "/>
<path fill="none" stroke="gray" d="M927,-280C933,-280 939,-286 939,-292"/>
<polyline fill="none" stroke="gray" points="939,-292 939,-396 "/>
<path fill="none" stroke="gray" d="M939,-396C939,-402 933,-408 927,-408"/>
<polyline fill="none" stroke="gray" points="927,-408 749,-408 "/>
<path fill="none" stroke="gray" d="M749,-408C743,-408 737,-402 737,-396"/>
<polyline fill="none" stroke="gray" points="737,-396 737,-292 "/>
<path fill="none" stroke="gray" d="M737,-292C737,-286 743,-280 749,-280"/>
<text text-anchor="middle" x="838" y="-394.1" font-family="Times Roman,serif" font-size="11.00" fill="gray">DependencyInjection</text>
</g>
<g id="graph12" class="cluster"><title>cluster_\RustigWerken\MapsBundle\Controller</title>
<polyline fill="none" stroke="gray" points="776,-152 900,-152 "/>
<path fill="none" stroke="gray" d="M900,-152C906,-152 912,-158 912,-164"/>
<polyline fill="none" stroke="gray" points="912,-164 912,-214 "/>
<path fill="none" stroke="gray" d="M912,-214C912,-220 906,-226 900,-226"/>
<polyline fill="none" stroke="gray" points="900,-226 776,-226 "/>
<path fill="none" stroke="gray" d="M776,-226C770,-226 764,-220 764,-214"/>
<polyline fill="none" stroke="gray" points="764,-214 764,-164 "/>
<path fill="none" stroke="gray" d="M764,-164C764,-158 770,-152 776,-152"/>
<text text-anchor="middle" x="838" y="-212.1" font-family="Times Roman,serif" font-size="11.00" fill="gray">Controller</text>
</g>
<g id="graph13" class="cluster"><title>cluster_\RustigWerken\MapsBundle\Tests</title>
<polyline fill="none" stroke="gray" points="755,-32 921,-32 "/>
<path fill="none" stroke="gray" d="M921,-32C927,-32 933,-38 933,-44"/>
<polyline fill="none" stroke="gray" points="933,-44 933,-132 "/>
<path fill="none" stroke="gray" d="M933,-132C933,-138 927,-144 921,-144"/>
<polyline fill="none" stroke="gray" points="921,-144 755,-144 "/>
<path fill="none" stroke="gray" d="M755,-144C749,-144 743,-138 743,-132"/>
<polyline fill="none" stroke="gray" points="743,-132 743,-44 "/>
<path fill="none" stroke="gray" d="M743,-44C743,-38 749,-32 755,-32"/>
<text text-anchor="middle" x="838" y="-130.1" font-family="Times Roman,serif" font-size="11.00" fill="gray">Tests</text>
</g>
<g id="graph14" class="cluster"><title>cluster_\RustigWerken\MapsBundle\Tests\Controller</title>
<polyline fill="none" stroke="gray" points="763,-40 913,-40 "/>
<path fill="none" stroke="gray" d="M913,-40C919,-40 925,-46 925,-52"/>
<polyline fill="none" stroke="gray" points="925,-52 925,-102 "/>
<path fill="none" stroke="gray" d="M925,-102C925,-108 919,-114 913,-114"/>
<polyline fill="none" stroke="gray" points="913,-114 763,-114 "/>
<path fill="none" stroke="gray" d="M763,-114C757,-114 751,-108 751,-102"/>
<polyline fill="none" stroke="gray" points="751,-102 751,-52 "/>
<path fill="none" stroke="gray" d="M751,-52C751,-46 757,-40 763,-40"/>
<text text-anchor="middle" x="838" y="-100.1" font-family="Times Roman,serif" font-size="11.00" fill="gray">Controller</text>
</g>
<!-- \\RustigWerken\\ApiBundle\\DependencyInjection\\RustigWerkenApiExtension -->
<g id="node5" class="node"><title>\\RustigWerken\\ApiBundle\\DependencyInjection\\RustigWerkenApiExtension</title>
<polygon fill="none" stroke="black" points="927,-1036 749,-1036 749,-1000 927,-1000 927,-1036"/>
<text text-anchor="middle" x="838" y="-1015.1" font-family="Courier,monospace" font-size="11.00">RustigWerkenApiExtension</text>
</g>
<!-- \\Symfony\\Component\\HttpKernel\\DependencyInjection\\Extension -->
<g id="node29" class="node"><title>\\Symfony\\Component\\HttpKernel\\DependencyInjection\\Extension</title>
<ellipse fill="none" stroke="black" cx="330" cy="-716" rx="329.012" ry="18.3848"/>
<text text-anchor="middle" x="330" y="-712.4" font-family="Times Roman,serif" font-size="14.00" fill="gray">\Symfony\Component\HttpKernel\DependencyInjection\Extension</text>
</g>
<!-- \\RustigWerken\\ApiBundle\\DependencyInjection\\RustigWerkenApiExtension&#45;&gt;\\Symfony\\Component\\HttpKernel\\DependencyInjection\\Extension -->
<g id="edge15" class="edge"><title>\\RustigWerken\\ApiBundle\\DependencyInjection\\RustigWerkenApiExtension&#45;&gt;\\Symfony\\Component\\HttpKernel\\DependencyInjection\\Extension</title>
<path fill="none" stroke="black" d="M748.174,-1014.91C730.517,-1010.56 713.353,-1003.17 700,-991 653.43,-948.564 701.973,-901.987 660,-855 602.052,-790.13 508.869,-754.648 436.277,-735.807"/>
<polygon fill="none" stroke="black" points="436.728,-732.311 426.176,-733.258 435.015,-739.099 436.728,-732.311"/>
</g>
<!-- \\RustigWerken\\ApiBundle\\DependencyInjection\\Configuration -->
<g id="node6" class="node"><title>\\RustigWerken\\ApiBundle\\DependencyInjection\\Configuration</title>
<polygon fill="none" stroke="black" points="890,-982 786,-982 786,-946 890,-946 890,-982"/>
<text text-anchor="middle" x="838" y="-961.1" font-family="Courier,monospace" font-size="11.00">Configuration</text>
</g>
<!-- \\Symfony\\Component\\Config\\Definition\\ConfigurationInterface -->
<g id="node31" class="node"><title>\\Symfony\\Component\\Config\\Definition\\ConfigurationInterface</title>
<ellipse fill="none" stroke="black" cx="330" cy="-662" rx="314.162" ry="18.3848"/>
<text text-anchor="middle" x="330" y="-658.4" font-family="Times Roman,serif" font-size="14.00" fill="gray">\Symfony\Component\Config\Definition\ConfigurationInterface</text>
</g>
<!-- \\RustigWerken\\ApiBundle\\DependencyInjection\\Configuration&#45;&gt;\\Symfony\\Component\\Config\\Definition\\ConfigurationInterface -->
<g id="edge17" class="edge"><title>\\RustigWerken\\ApiBundle\\DependencyInjection\\Configuration&#45;&gt;\\Symfony\\Component\\Config\\Definition\\ConfigurationInterface</title>
<path fill="none" stroke="black" stroke-dasharray="1,5" d="M785.884,-966.114C756.644,-964.379 721.773,-956.941 700,-934 624.048,-853.974 741.08,-763.825 660,-689 595.043,-629.054 489.06,-631.381 414.772,-642.799"/>
<polygon fill="none" stroke="black" points="413.817,-639.408 404.507,-644.465 414.939,-646.317 413.817,-639.408"/>
</g>
<!-- \\RustigWerken\\ApiBundle\\Controller\\LocationController -->
<g id="node8" class="node"><title>\\RustigWerken\\ApiBundle\\Controller\\LocationController</title>
<polygon fill="none" stroke="black" points="907,-900 769,-900 769,-864 907,-864 907,-900"/>
<text text-anchor="middle" x="838" y="-879.1" font-family="Courier,monospace" font-size="11.00">LocationController</text>
</g>
<!-- \\FOS\\RestBundle\\Controller\\FOSRestController -->
<g id="node33" class="node"><title>\\FOS\\RestBundle\\Controller\\FOSRestController</title>
<ellipse fill="none" stroke="black" cx="330" cy="-882" rx="239.002" ry="18.3848"/>
<text text-anchor="middle" x="330" y="-878.4" font-family="Times Roman,serif" font-size="14.00" fill="gray">\FOS\RestBundle\Controller\FOSRestController</text>
</g>
<!-- \\RustigWerken\\ApiBundle\\Controller\\LocationController&#45;&gt;\\FOS\\RestBundle\\Controller\\FOSRestController -->
<g id="edge19" class="edge"><title>\\RustigWerken\\ApiBundle\\Controller\\LocationController&#45;&gt;\\FOS\\RestBundle\\Controller\\FOSRestController</title>
<path fill="none" stroke="black" d="M768.96,-882C719.315,-882 649.082,-882 579.319,-882"/>
<polygon fill="none" stroke="black" points="579.032,-878.5 569.032,-882 579.032,-885.5 579.032,-878.5"/>
</g>
<!-- \\RustigWerken\\ApiBundle\\RustigWerkenApiBundle -->
<g id="node9" class="node"><title>\\RustigWerken\\ApiBundle\\RustigWerkenApiBundle</title>
<polygon fill="none" stroke="black" points="917,-846 759,-846 759,-810 917,-810 917,-846"/>
<text text-anchor="middle" x="838" y="-825.1" font-family="Courier,monospace" font-size="11.00">RustigWerkenApiBundle</text>
</g>
<!-- \\Symfony\\Component\\HttpKernel\\Bundle\\Bundle -->
<g id="node35" class="node"><title>\\Symfony\\Component\\HttpKernel\\Bundle\\Bundle</title>
<ellipse fill="none" stroke="black" cx="330" cy="-608" rx="246.78" ry="18.3848"/>
<text text-anchor="middle" x="330" y="-604.4" font-family="Times Roman,serif" font-size="14.00" fill="gray">\Symfony\Component\HttpKernel\Bundle\Bundle</text>
</g>
<!-- \\RustigWerken\\ApiBundle\\RustigWerkenApiBundle&#45;&gt;\\Symfony\\Component\\HttpKernel\\Bundle\\Bundle -->
<g id="edge21" class="edge"><title>\\RustigWerken\\ApiBundle\\RustigWerkenApiBundle&#45;&gt;\\Symfony\\Component\\HttpKernel\\Bundle\\Bundle</title>
<path fill="none" stroke="black" d="M765.693,-809.933C741.956,-800.823 717.265,-787.432 700,-768 659.002,-721.855 707.991,-673.82 660,-635 594.159,-581.742 494.812,-580.839 422.327,-589.671"/>
<polygon fill="none" stroke="black" points="421.748,-586.217 412.283,-590.978 422.651,-593.158 421.748,-586.217"/>
</g>
<!-- \\RustigWerken\\EntitiesBundle\\Entity\\Location -->
<g id="node12" class="node"><title>\\RustigWerken\\EntitiesBundle\\Entity\\Location</title>
<polygon fill="none" stroke="black" points="873,-552 803,-552 803,-516 873,-516 873,-552"/>
<text text-anchor="middle" x="838" y="-531.1" font-family="Courier,monospace" font-size="11.00">Location</text>
</g>
<!-- \\RustigWerken\\EntitiesBundle\\Entity\\LocationRepository -->
<g id="node13" class="node"><title>\\RustigWerken\\EntitiesBundle\\Entity\\LocationRepository</title>
<polygon fill="none" stroke="black" points="907,-498 769,-498 769,-462 907,-462 907,-498"/>
<text text-anchor="middle" x="838" y="-477.1" font-family="Courier,monospace" font-size="11.00">LocationRepository</text>
</g>
<!-- \\Doctrine\\ORM\\EntityRepository -->
<g id="node37" class="node"><title>\\Doctrine\\ORM\\EntityRepository</title>
<ellipse fill="none" stroke="black" cx="330" cy="-480" rx="167.084" ry="18.3848"/>
<text text-anchor="middle" x="330" y="-476.4" font-family="Times Roman,serif" font-size="14.00" fill="gray">\Doctrine\ORM\EntityRepository</text>
</g>
<!-- \\RustigWerken\\EntitiesBundle\\Entity\\LocationRepository&#45;&gt;\\Doctrine\\ORM\\EntityRepository -->
<g id="edge23" class="edge"><title>\\RustigWerken\\EntitiesBundle\\Entity\\LocationRepository&#45;&gt;\\Doctrine\\ORM\\EntityRepository</title>
<path fill="none" stroke="black" d="M768.96,-480C702.087,-480 597.853,-480 507.737,-480"/>
<polygon fill="none" stroke="black" points="507.665,-476.5 497.665,-480 507.665,-483.5 507.665,-476.5"/>
</g>
<!-- \\RustigWerken\\EntitiesBundle\\DependencyInjection\\RustigWerkenEntitiesExtension -->
<g id="node15" class="node"><title>\\RustigWerken\\EntitiesBundle\\DependencyInjection\\RustigWerkenEntitiesExtension</title>
<polygon fill="none" stroke="black" points="944,-734 732,-734 732,-698 944,-698 944,-734"/>
<text text-anchor="middle" x="838" y="-713.1" font-family="Courier,monospace" font-size="11.00">RustigWerkenEntitiesExtension</text>
</g>
<!-- \\RustigWerken\\EntitiesBundle\\DependencyInjection\\RustigWerkenEntitiesExtension&#45;&gt;\\Symfony\\Component\\HttpKernel\\DependencyInjection\\Extension -->
<g id="edge25" class="edge"><title>\\RustigWerken\\EntitiesBundle\\DependencyInjection\\RustigWerkenEntitiesExtension&#45;&gt;\\Symfony\\Component\\HttpKernel\\DependencyInjection\\Extension</title>
<path fill="none" stroke="black" d="M731.816,-716C712.583,-716 691.616,-716 669.684,-716"/>
<polygon fill="none" stroke="black" points="669.542,-712.5 659.542,-716 669.542,-719.5 669.542,-712.5"/>
</g>
<!-- \\RustigWerken\\EntitiesBundle\\DependencyInjection\\Configuration -->
<g id="node16" class="node"><title>\\RustigWerken\\EntitiesBundle\\DependencyInjection\\Configuration</title>
<polygon fill="none" stroke="black" points="890,-680 786,-680 786,-644 890,-644 890,-680"/>
<text text-anchor="middle" x="838" y="-659.1" font-family="Courier,monospace" font-size="11.00">Configuration</text>
</g>
<!-- \\RustigWerken\\EntitiesBundle\\DependencyInjection\\Configuration&#45;&gt;\\Symfony\\Component\\Config\\Definition\\ConfigurationInterface -->
<g id="edge27" class="edge"><title>\\RustigWerken\\EntitiesBundle\\DependencyInjection\\Configuration&#45;&gt;\\Symfony\\Component\\Config\\Definition\\ConfigurationInterface</title>
<path fill="none" stroke="black" stroke-dasharray="1,5" d="M785.548,-662C752.039,-662 705.467,-662 654.811,-662"/>
<polygon fill="none" stroke="black" points="654.628,-658.5 644.628,-662 654.628,-665.5 654.628,-658.5"/>
</g>
<!-- \\RustigWerken\\EntitiesBundle\\RustigWerkenEntitiesBundle -->
<g id="node17" class="node"><title>\\RustigWerken\\EntitiesBundle\\RustigWerkenEntitiesBundle</title>
<polygon fill="none" stroke="black" points="934,-626 742,-626 742,-590 934,-590 934,-626"/>
<text text-anchor="middle" x="838" y="-605.1" font-family="Courier,monospace" font-size="11.00">RustigWerkenEntitiesBundle</text>
</g>
<!-- \\RustigWerken\\EntitiesBundle\\RustigWerkenEntitiesBundle&#45;&gt;\\Symfony\\Component\\HttpKernel\\Bundle\\Bundle -->
<g id="edge29" class="edge"><title>\\RustigWerken\\EntitiesBundle\\RustigWerkenEntitiesBundle&#45;&gt;\\Symfony\\Component\\HttpKernel\\Bundle\\Bundle</title>
<path fill="none" stroke="black" d="M741.852,-608C697.51,-608 642.534,-608 587.347,-608"/>
<polygon fill="none" stroke="black" points="587.043,-604.5 577.043,-608 587.043,-611.5 587.043,-604.5"/>
</g>
<!-- \\RustigWerken\\MapsBundle\\DependencyInjection\\RustigWerkenMapsExtension -->
<g id="node20" class="node"><title>\\RustigWerken\\MapsBundle\\DependencyInjection\\RustigWerkenMapsExtension</title>
<polygon fill="none" stroke="black" points="930,-378 746,-378 746,-342 930,-342 930,-378"/>
<text text-anchor="middle" x="838" y="-357.1" font-family="Courier,monospace" font-size="11.00">RustigWerkenMapsExtension</text>
</g>
<!-- \\RustigWerken\\MapsBundle\\DependencyInjection\\RustigWerkenMapsExtension&#45;&gt;\\Symfony\\Component\\HttpKernel\\DependencyInjection\\Extension -->
<g id="edge31" class="edge"><title>\\RustigWerken\\MapsBundle\\DependencyInjection\\RustigWerkenMapsExtension&#45;&gt;\\Symfony\\Component\\HttpKernel\\DependencyInjection\\Extension</title>
<path fill="none" stroke="black" d="M792.179,-378.05C761.141,-392.715 721.924,-416.49 700,-450 641.036,-540.124 739.293,-616.117 660,-689 595.025,-748.723 489.294,-746.523 415.061,-735.192"/>
<polygon fill="none" stroke="black" points="415.232,-731.675 404.803,-733.538 414.118,-738.585 415.232,-731.675"/>
</g>
<!-- \\RustigWerken\\MapsBundle\\DependencyInjection\\Configuration -->
<g id="node21" class="node"><title>\\RustigWerken\\MapsBundle\\DependencyInjection\\Configuration</title>
<polygon fill="none" stroke="black" points="890,-324 786,-324 786,-288 890,-288 890,-324"/>
<text text-anchor="middle" x="838" y="-303.1" font-family="Courier,monospace" font-size="11.00">Configuration</text>
</g>
<!-- \\RustigWerken\\MapsBundle\\DependencyInjection\\Configuration&#45;&gt;\\Symfony\\Component\\Config\\Definition\\ConfigurationInterface -->
<g id="edge33" class="edge"><title>\\RustigWerken\\MapsBundle\\DependencyInjection\\Configuration&#45;&gt;\\Symfony\\Component\\Config\\Definition\\ConfigurationInterface</title>
<path fill="none" stroke="black" stroke-dasharray="1,5" d="M785.736,-302.403C756.446,-303.381 721.573,-310.057 700,-333 607.252,-431.638 758.104,-541.687 660,-635 595.258,-696.58 487.475,-693.334 412.787,-681.281"/>
<polygon fill="none" stroke="black" points="412.921,-677.753 402.476,-679.527 411.747,-684.654 412.921,-677.753"/>
</g>
<!-- \\RustigWerken\\MapsBundle\\Controller\\DefaultController -->
<g id="node23" class="node"><title>\\RustigWerken\\MapsBundle\\Controller\\DefaultController</title>
<polygon fill="none" stroke="black" points="903,-196 773,-196 773,-160 903,-160 903,-196"/>
<text text-anchor="middle" x="838" y="-175.1" font-family="Courier,monospace" font-size="11.00">DefaultController</text>
</g>
<!-- \\Symfony\\Bundle\\FrameworkBundle\\Controller\\Controller -->
<g id="node44" class="node"><title>\\Symfony\\Bundle\\FrameworkBundle\\Controller\\Controller</title>
<ellipse fill="none" stroke="black" cx="330" cy="-178" rx="290.121" ry="18.3848"/>
<text text-anchor="middle" x="330" y="-174.4" font-family="Times Roman,serif" font-size="14.00" fill="gray">\Symfony\Bundle\FrameworkBundle\Controller\Controller</text>
</g>
<!-- \\RustigWerken\\MapsBundle\\Controller\\DefaultController&#45;&gt;\\Symfony\\Bundle\\FrameworkBundle\\Controller\\Controller -->
<g id="edge35" class="edge"><title>\\RustigWerken\\MapsBundle\\Controller\\DefaultController&#45;&gt;\\Symfony\\Bundle\\FrameworkBundle\\Controller\\Controller</title>
<path fill="none" stroke="black" d="M772.368,-178C734.635,-178 684.239,-178 630.988,-178"/>
<polygon fill="none" stroke="black" points="630.659,-174.5 620.659,-178 630.659,-181.5 630.659,-174.5"/>
</g>
<!-- \\RustigWerken\\MapsBundle\\Tests\\Controller\\DefaultControllerTest -->
<g id="node26" class="node"><title>\\RustigWerken\\MapsBundle\\Tests\\Controller\\DefaultControllerTest</title>
<polygon fill="none" stroke="black" points="917,-84 759,-84 759,-48 917,-48 917,-84"/>
<text text-anchor="middle" x="838" y="-63.1" font-family="Courier,monospace" font-size="11.00">DefaultControllerTest</text>
</g>
<!-- \\Liip\\FunctionalTestBundle\\Test\\WebTestCase -->
<g id="node46" class="node"><title>\\Liip\\FunctionalTestBundle\\Test\\WebTestCase</title>
<ellipse fill="none" stroke="black" cx="330" cy="-66" rx="229.81" ry="18.3848"/>
<text text-anchor="middle" x="330" y="-62.4" font-family="Times Roman,serif" font-size="14.00" fill="gray">\Liip\FunctionalTestBundle\Test\WebTestCase</text>
</g>
<!-- \\RustigWerken\\MapsBundle\\Tests\\Controller\\DefaultControllerTest&#45;&gt;\\Liip\\FunctionalTestBundle\\Test\\WebTestCase -->
<g id="edge37" class="edge"><title>\\RustigWerken\\MapsBundle\\Tests\\Controller\\DefaultControllerTest&#45;&gt;\\Liip\\FunctionalTestBundle\\Test\\WebTestCase</title>
<path fill="none" stroke="black" d="M758.904,-66C707.804,-66 638.345,-66 570.212,-66"/>
<polygon fill="none" stroke="black" points="570.172,-62.5001 560.172,-66 570.172,-69.5001 570.172,-62.5001"/>
</g>
<!-- \\RustigWerken\\MapsBundle\\RustigWerkenMapsBundle -->
<g id="node27" class="node"><title>\\RustigWerken\\MapsBundle\\RustigWerkenMapsBundle</title>
<polygon fill="none" stroke="black" points="920,-270 756,-270 756,-234 920,-234 920,-270"/>
<text text-anchor="middle" x="838" y="-249.1" font-family="Courier,monospace" font-size="11.00">RustigWerkenMapsBundle</text>
</g>
<!-- \\RustigWerken\\MapsBundle\\RustigWerkenMapsBundle&#45;&gt;\\Symfony\\Component\\HttpKernel\\Bundle\\Bundle -->
<g id="edge39" class="edge"><title>\\RustigWerken\\MapsBundle\\RustigWerkenMapsBundle&#45;&gt;\\Symfony\\Component\\HttpKernel\\Bundle\\Bundle</title>
<path fill="none" stroke="black" d="M755.455,-250.185C734.97,-253.732 714.697,-261.293 700,-276 626.35,-349.704 728.91,-428.847 660,-507 619.639,-552.775 559.154,-578.114 500.948,-592.031"/>
<polygon fill="none" stroke="black" points="499.842,-588.694 490.873,-594.334 501.402,-595.518 499.842,-588.694"/>
</g>
</g>
</svg>
